HIERARCHY
ROOT Hips
{
	OFFSET 0.000000 0.000000 0.000000
	CHANNELS 6 Xposition Yposition Zposition Zrotation Xrotation Yrotation
	JOINT LHipJoint
	{
		OFFSET 0.000000 0.000000 0.000000
		CHANNELS 3 Zrotation Xrotation Yrotation
		JOINT LeftUpLeg
		{
			OFFSET 0.076937 -0.101296 0.047373
			CHANNELS 3 Zrotation Xrotation Yrotation
			JOINT LeftLeg
			{
				OFFSET 0.138181 -0.379650 0.000000
				CHANNELS 3 Zrotation Xrotation Yrotation
				JOINT LeftFoot
				{
					OFFSET 0.144621 -0.397343 0.000000
					CHANNELS 3 Zrotation Xrotation Yrotation
					JOINT LeftToeBase
					{
						OFFSET 0.008898 -0.024446 0.131094
						CHANNELS 3 Zrotation Xrotation Yrotation
						JOINT End_Site
						{
							OFFSET 0.000000 -0.000000 0.067149
							CHANNELS 3 Zrotation Xrotation Yrotation
							End Site
							{
								OFFSET 0.000000 -0.000000 0.020145
							}
						}
					}
				}
			}
		}
	}
	JOINT RHipJoint
	{
		OFFSET 0.000000 0.000000 0.000000
		CHANNELS 3 Zrotation Xrotation Yrotation
		JOINT RightUpLeg
		{
			OFFSET -0.073689 -0.101296 0.047373
			CHANNELS 3 Zrotation Xrotation Yrotation
			JOINT RightLeg
			{
				OFFSET -0.143511 -0.394292 0.000000
				CHANNELS 3 Zrotation Xrotation Yrotation
				JOINT RightFoot
				{
					OFFSET -0.144963 -0.398282 0.000000
					CHANNELS 3 Zrotation Xrotation Yrotation
					JOINT RightToeBase
					{
						OFFSET -0.009298 -0.025546 0.133386
						CHANNELS 3 Zrotation Xrotation Yrotation
						JOINT End_Site
						{
							OFFSET -0.000000 -0.000000 0.068344
							CHANNELS 3 Zrotation Xrotation Yrotation
							End Site
							{
								OFFSET -0.000000 -0.000000 0.020503
							}
						}
					}
				}
			}
		}
	}
	JOINT LowerBack
	{
		OFFSET 0.000000 0.000000 0.000000
		CHANNELS 3 Zrotation Xrotation Yrotation
		JOINT Spine
		{
			OFFSET 0.001596 0.114897 -0.010915
			CHANNELS 3 Zrotation Xrotation Yrotation
			JOINT Spine1
			{
				OFFSET 0.003202 0.115645 -0.002413
				CHANNELS 3 Zrotation Xrotation Yrotation
				JOINT Neck
				{
					OFFSET 0.000000 0.000000 0.000000
					CHANNELS 3 Zrotation Xrotation Yrotation
					JOINT Neck1
					{
						OFFSET -0.003058 0.098565 0.009709
						CHANNELS 3 Zrotation Xrotation Yrotation
						JOINT Head
						{
							OFFSET 0.005874 0.099418 -0.006997
							CHANNELS 3 Zrotation Xrotation Yrotation
							JOINT End_Site
							{
								OFFSET 0.002100 0.099931 -0.003523
								CHANNELS 3 Zrotation Xrotation Yrotation
								End Site
								{
									OFFSET 0.000630 0.029979 -0.001057
								}
							}
						}
					}
				}
				JOINT LeftShoulder
				{
					OFFSET 0.000000 0.000000 0.000000
					CHANNELS 3 Zrotation Xrotation Yrotation
					JOINT LeftArm
					{
						OFFSET 0.189788 0.067783 -0.017566
						CHANNELS 3 Zrotation Xrotation Yrotation
						JOINT LeftForeArm
						{
							OFFSET 0.281260 -0.000000 -0.000000
							CHANNELS 3 Zrotation Xrotation Yrotation
							JOINT LeftHand
							{
								OFFSET 0.196626 -0.000000 -0.000000
								CHANNELS 3 Zrotation Xrotation Yrotation
								JOINT LeftFingerBase
								{
									OFFSET 0.000000 0.000000 0.000000
									CHANNELS 3 Zrotation Xrotation Yrotation
									JOINT LeftHandIndex1
									{
										OFFSET 0.040372 -0.000000 -0.000000
										CHANNELS 3 Zrotation Xrotation Yrotation
										JOINT End_Site
										{
											OFFSET 0.032549 -0.000000 -0.000000
											CHANNELS 3 Zrotation Xrotation Yrotation
											End Site
											{
												OFFSET 0.009765 -0.000000 -0.000000
											}
										}
									}
								}
								JOINT LThumb
								{
									OFFSET 0.000000 0.000000 0.000000
									CHANNELS 3 Zrotation Xrotation Yrotation
									JOINT End_Site
									{
										OFFSET 0.033046 -0.000000 0.033046
										CHANNELS 3 Zrotation Xrotation Yrotation
										End Site
										{
											OFFSET 0.009914 -0.000000 0.009914
										}
									}
								}
							}
						}
					}
				}
				JOINT RightShoulder
				{
					OFFSET 0.000000 0.000000 0.000000
					CHANNELS 3 Zrotation Xrotation Yrotation
					JOINT RightArm
					{
						OFFSET -0.177042 0.077557 -0.022840
						CHANNELS 3 Zrotation Xrotation Yrotation
						JOINT RightForeArm
						{
							OFFSET -0.295874 -0.000000 -0.000000
							CHANNELS 3 Zrotation Xrotation Yrotation
							JOINT RightHand
							{
								OFFSET -0.194403 -0.000000 -0.000000
								CHANNELS 3 Zrotation Xrotation Yrotation
								JOINT RightFingerBase
								{
									OFFSET 0.000000 0.000000 0.000000
									CHANNELS 3 Zrotation Xrotation Yrotation
									JOINT RightHandIndex1
									{
										OFFSET -0.035138 -0.000000 -0.000000
										CHANNELS 3 Zrotation Xrotation Yrotation
										JOINT End_Site
										{
											OFFSET -0.028329 -0.000000 -0.000000
											CHANNELS 3 Zrotation Xrotation Yrotation
											End Site
											{
												OFFSET -0.008499 -0.000000 -0.000000
											}
										}
									}
								}
								JOINT RThumb
								{
									OFFSET 0.000000 0.000000 0.000000
									CHANNELS 3 Zrotation Xrotation Yrotation
									JOINT End_Site
									{
										OFFSET -0.028762 -0.000000 0.028762
										CHANNELS 3 Zrotation Xrotation Yrotation
										End Site
										{
											OFFSET -0.008628 -0.000000 0.008628
										}
									}
								}
							}
						}
					}
				}
			}
		}
	}
}
MOTION
Frames: 7
Frame Time: 0.03333333
0.000090 0.962532 0.000000 -0.000000 0.000000 -0.000000 -53.056062 34.005562 35.168637 25.959798 -38.505004 -4.925392 -18.373585 -14.482155 -8.119151 -16.481477 29.872914 105.970865 6.033225 -20.212589 32.941648 -0.000000 0.000000 -0.000000 48.465568 13.416081 13.299940 -16.799754 3.990506 -0.819458 -25.919434 -6.443738 0.796620 -22.304234 51.830244 74.308354 0.497779 -3.350999 16.893965 -0.000000 0.000000 -0.000000 -7.507828 -2.412563 -0.836618 -2.679308 -6.413398 -0.028269 -0.000000 0.000000 -0.000000 1.460622 -1.433596 -0.170233 4.266318 8.107292 -0.485375 -6.969081 -3.827109 -0.397675 -0.000000 0.000000 -0.000000 67.528187 24.703363 64.532905 -34.984730 -32.412883 85.367511 -43.959697 18.020247 -42.895886 -0.000000 0.000000 -0.000000 11.609403 0.300201 2.952372 -1.030396 -0.108186 11.987229 -0.000000 0.000000 -0.000000 -10.678094 1.667526 72.297751 -0.000000 0.000000 -0.000000 -75.225466 -11.291995 71.858406 -4.084030 -6.193315 113.225251 -57.934504 -12.431366 22.261220 -0.000000 0.000000 -0.000000 -20.910709 3.704067 -19.877820 7.836324 0.403787 5.890258 -0.000000 0.000000 -0.000000 0.667985 0.370952 -31.910951 -0.000000 0.000000 -0.000000
0.009880 0.978035 -0.008687 0.000000 0.000000 0.000000 -53.847474 34.335948 36.306382 25.975176 -38.935629 -4.979347 -19.216870 -14.700686 -8.385147 -13.619402 28.240297 105.786171 5.755136 -20.895168 30.496541 0.000000 0.000000 0.000000 48.840303 13.354666 13.727197 -16.911735 4.239404 -0.866295 -26.429878 -6.297454 0.750007 -21.896266 50.874040 75.350658 0.489504 -3.450808 16.142600 0.000000 0.000000 0.000000 -7.833452 -2.450510 -0.876470 -2.722776 -6.519077 -0.031191 0.000000 0.000000 0.000000 1.652635 -1.479411 -0.187521 4.357958 8.254969 -0.500012 -7.172793 -3.731316 -0.407692 0.000000 0.000000 0.000000 66.945084 24.705445 65.727606 -38.119703 -33.137506 81.465802 -44.039585 19.018906 -44.998214 0.000000 0.000000 0.000000 11.369511 0.231952 2.329818 -1.223523 -0.127859 11.931150 0.000000 0.000000 0.000000 -10.871100 1.717542 72.095628 0.000000 0.000000 0.000000 -74.658374 -11.312094 72.957474 -3.838522 -5.765955 112.719726 -57.922052 -13.022315 23.305689 0.000000 0.000000 0.000000 -22.108180 3.836859 -19.458067 8.153850 0.419275 5.877277 0.000000 0.000000 0.000000 0.847387 0.470826 -31.885676 0.000000 0.000000 0.000000
0.014196 0.981575 -0.022407 0.000000 0.000000 0.000000 -54.044359 34.616573 37.193928 25.302583 -39.309288 -5.274556 -20.021168 -14.493920 -8.401481 -10.658229 26.642787 104.457679 5.483090 -21.649586 28.119501 0.000000 0.000000 0.000000 48.795909 13.133334 14.093119 -16.743929 4.226491 -0.870106 -26.662035 -5.765228 0.674658 -21.128376 49.964783 75.480028 0.509575 -3.719568 15.596443 0.000000 0.000000 0.000000 -8.137049 -2.315520 -0.904230 -2.742700 -6.578522 -0.032516 0.000000 0.000000 0.000000 1.877834 -1.645743 -0.209272 4.350707 8.437754 -0.518024 -7.399722 -3.492669 -0.412718 0.000000 0.000000 0.000000 65.870701 24.207516 66.637833 -41.998171 -34.019208 77.107673 -42.783224 19.198784 -46.704139 0.000000 0.000000 0.000000 11.368581 0.188222 1.890821 -1.605479 -0.162500 11.558393 0.000000 0.000000 0.000000 -11.026183 1.820923 71.300361 0.000000 0.000000 0.000000 -73.337411 -10.812102 73.954810 -2.313766 -3.458171 112.438134 -55.936868 -13.912669 25.881006 0.000000 0.000000 0.000000 -23.906750 3.883887 -18.198127 8.698093 0.422465 5.550685 0.000000 0.000000 0.000000 1.270098 0.704877 -31.942710 0.000000 0.000000 0.000000
0.015091 0.988204 -0.036469 0.000000 0.000000 0.000000 -53.862218 34.903835 38.012290 24.106419 -39.695377 -5.769177 -20.902194 -13.916999 -8.208143 -7.431633 24.842507 102.211234 5.169819 -22.472842 25.605490 0.000000 0.000000 0.000000 48.436079 12.783510 14.418402 -16.359174 3.967391 -0.830623 -26.741386 -4.903381 0.570227 -20.043195 48.995093 74.947532 0.555505 -4.180782 15.130706 0.000000 0.000000 0.000000 -8.439641 -2.046034 -0.923243 -2.755920 -6.630297 -0.033362 0.000000 0.000000 0.000000 2.179105 -1.946511 -0.238310 4.265595 8.643713 -0.537878 -7.699852 -3.128173 -0.415667 0.000000 0.000000 0.000000 64.468752 23.344189 67.303203 -46.715161 -34.859468 72.032369 -40.483577 18.748056 -48.233766 0.000000 0.000000 0.000000 11.674015 0.159490 1.560036 -2.014857 -0.195745 11.096697 0.000000 0.000000 0.000000 -11.036502 1.923691 70.283221 0.000000 0.000000 0.000000 -71.396064 -9.887994 74.944634 0.248414 0.367765 111.924376 -52.402752 -14.794323 29.558844 0.000000 0.000000 0.000000 -26.126569 3.747070 -16.048942 9.345056 0.417195 5.101055 0.000000 0.000000 0.000000 1.831285 1.014350 -32.038663 0.000000 0.000000 0.000000
0.011155 0.987714 -0.045244 0.000000 0.000000 0.000000 -53.623539 35.227297 38.917382 22.775021 -40.161786 -6.338316 -21.829971 -13.296627 -7.985566 -4.212341 22.858232 100.005223 4.747200 -22.984325 23.047081 0.000000 0.000000 0.000000 48.135383 12.369111 14.900473 -15.968501 3.760032 -0.800573 -26.941110 -3.868580 0.442950 -18.757526 47.747779 74.455647 0.590964 -4.617326 14.579392 0.000000 0.000000 0.000000 -8.763409 -1.673581 -0.936831 -2.773425 -6.648564 -0.034676 0.000000 0.000000 0.000000 2.480687 -2.263378 -0.265955 4.185480 8.851427 -0.557637 -7.970470 -2.730886 -0.413367 0.000000 0.000000 0.000000 62.852318 22.357743 68.177714 -51.389823 -35.152832 66.717029 -38.540145 18.383755 -49.674866 0.000000 0.000000 0.000000 12.122719 0.139860 1.317056 -2.391849 -0.227204 10.851044 0.000000 0.000000 0.000000 -11.040857 2.022248 69.302240 0.000000 0.000000 0.000000 -69.364423 -8.852270 75.874449 3.051057 4.427005 110.865379 -48.667228 -15.390803 33.272085 0.000000 0.000000 0.000000 -28.092326 3.445372 -13.709715 10.045439 0.393316 4.472933 0.000000 0.000000 0.000000 2.574654 1.425994 -32.045166 0.000000 0.000000 0.000000
0.003166 0.992612 -0.046114 0.000000 0.000000 0.000000 -53.283031 35.595371 39.915681 21.154980 -40.703302 -7.045115 -22.812357 -12.554100 -7.684186 -0.935566 20.632294 97.692334 4.234205 -23.304822 20.325543 0.000000 0.000000 0.000000 47.846348 11.878031 15.516000 -15.574920 3.500376 -0.757834 -27.197151 -2.539364 0.284946 -17.270976 46.210191 74.000350 0.614495 -5.025963 13.932531 0.000000 0.000000 0.000000 -9.094903 -1.192290 -0.942110 -2.783711 -6.638039 -0.035522 0.000000 0.000000 0.000000 2.822008 -2.642207 -0.295378 4.058633 9.087180 -0.579378 -8.248454 -2.252739 -0.405490 0.000000 0.000000 0.000000 61.037777 21.195802 69.110908 -56.158317 -34.980370 61.137846 -36.750410 17.964396 -50.894998 0.000000 0.000000 0.000000 12.864168 0.136563 1.211322 -2.836125 -0.260524 10.494722 0.000000 0.000000 0.000000 -10.824867 2.078518 68.322332 0.000000 0.000000 0.000000 -67.159315 -7.631599 76.664217 6.354050 8.922748 109.143332 -44.204541 -15.561513 37.192826 0.000000 0.000000 0.000000 -30.012747 2.988643 -11.116332 10.864322 0.359309 3.777102 0.000000 0.000000 0.000000 3.478703 1.925513 -32.080020 0.000000 0.000000 0.000000
-0.001119 1.001105 -0.043044 0.000000 0.000000 0.000000 -52.933014 35.918476 40.763688 19.632243 -41.083565 -7.701903 -23.682599 -11.798181 -7.342892 1.846834 18.553969 95.581391 3.753893 -23.383810 17.996820 0.000000 0.000000 0.000000 47.536052 11.400633 16.075488 -15.215164 3.208613 -0.705189 -27.435133 -1.410469 0.155288 -16.067919 44.956836 73.564582 0.638498 -5.387230 13.508664 0.000000 0.000000 0.000000 -9.376667 -0.688096 -0.938023 -2.780076 -6.633654 -0.035251 0.000000 0.000000 0.000000 3.087759 -2.976961 -0.316905 4.002182 9.234051 -0.592903 -8.478370 -1.865452 -0.397655 0.000000 0.000000 0.000000 59.422194 20.103797 69.863704 -60.395194 -34.438897 56.075391 -35.232402 17.602778 -51.989304 0.000000 0.000000 0.000000 13.608362 0.164698 1.380280 -3.297023 -0.293627 10.175677 0.000000 0.000000 0.000000 -10.700443 2.134247 67.501697 0.000000 0.000000 0.000000 -65.173983 -6.486073 77.294556 9.762240 13.154021 106.946870 -40.429613 -15.454189 40.456899 0.000000 0.000000 0.000000 -31.289678 2.316567 -8.258811 11.537663 0.303755 3.006002 0.000000 0.000000 0.000000 4.489414 2.497766 -31.836879 0.000000 0.000000 0.000000
